<?xml version="1.0" encoding="UTF-8"?>
<svg width="16px" height="16px" viewBox="0 0 16 16" version="1.1" xmlns="http://www.w3.org/2000/svg" xmlns:xlink="http://www.w3.org/1999/xlink">
    <title>Mobile/Cross/icn/filled/Filter</title>
    <defs>
        <path d="M6.66666667,10.4166667 L9.34981704,10.4166667 C9.85607807,10.4166667 10.2664837,10.8270723 10.2664837,11.3333333 C10.2664837,11.8034329 9.91261354,12.1908816 9.45671974,12.2438329 L9.34981704,12.25 L6.66666667,12.25 C6.16040565,12.25 5.75,11.8395944 5.75,11.3333333 C5.75,10.8632338 6.10387017,10.4757851 6.55976397,10.4228338 L6.66666667,10.4166667 L9.34981704,10.4166667 L6.66666667,10.4166667 Z M11.3757307,7.08333333 C11.8819917,7.08333333 12.2923974,7.49373898 12.2923974,8 C12.2923974,8.50626102 11.8819917,8.91666667 11.3757307,8.91666667 L4.66666667,8.91666667 C4.16040565,8.91666667 3.75,8.50626102 3.75,8 C3.75,7.49373898 4.16040565,7.08333333 4.66666667,7.08333333 L11.3757307,7.08333333 Z M2.66666667,3.75 L13.3333333,3.75 C13.8395944,3.75 14.25,4.16040565 14.25,4.66666667 C14.25,5.13676619 13.8961298,5.5242149 13.440236,5.57716625 L13.3333333,5.58333333 L2.66666667,5.58333333 C2.16040565,5.58333333 1.75,5.17292769 1.75,4.66666667 C1.75,4.19656715 2.10387017,3.80911844 2.55976397,3.75616709 L2.66666667,3.75 L13.3333333,3.75 L2.66666667,3.75 Z" id="path-1"></path>
    </defs>
    <g id="Mobile/Cross/icn/filled/Filter" stroke="none" stroke-width="1" fill="none" fill-rule="evenodd">
        <mask id="mask-2" fill="white">
            <use xlink:href="#path-1"></use>
        </mask>
        <use id="Form" fill="#2b497c" xlink:href="#path-1"></use>
    </g>
</svg>
